<svg width="108" height="28" viewBox="0 0 108 28" fill="none" xmlns="http://www.w3.org/2000/svg">
<path d="M19.415 25.8631C25.9665 22.8713 28.8543 15.1321 25.8625 8.58065C22.8714 2.03799 15.1323 -0.849821 8.58008 2.13314C2.03743 5.12428 -0.850387 12.8634 2.13258 19.4156C5.11554 25.9678 12.8635 28.8549 19.415 25.8631ZM9.66888 4.50573C14.9055 2.12154 21.1057 4.43288 23.4893 9.6606C25.8728 14.8883 23.5621 21.0975 18.3344 23.481C13.0978 25.8652 6.89754 23.5538 4.51401 18.3261C2.12982 13.0896 4.44116 6.88926 9.66888 4.50573ZM11.4064 20.4956L15.195 10.3387L18.4462 11.5495C19.1238 11.8003 19.8718 11.4584 20.1232 10.7897C20.3747 10.121 20.0321 9.36414 19.3634 9.1127L14.8849 7.44392C14.2073 7.19316 13.4594 7.53502 13.2079 8.20376L8.96138 19.588C8.71061 20.2656 9.05248 21.0135 9.72122 21.265C10.3988 21.5157 11.1556 21.1732 11.4064 20.4956Z" fill="black" stroke="black" stroke-width="0.5" stroke-miterlimit="10"/>
<path d="M14.5884 23.645C19.8709 23.2415 23.8384 18.7932 23.4501 13.7094C23.0618 8.62571 18.4646 4.83165 13.1821 5.23517C7.89953 5.6387 3.932 10.087 4.32034 15.1707C4.70867 20.2545 9.30583 24.0485 14.5884 23.645Z" fill="white"/>
<path d="M11.7625 19.2048L15.5575 11.5475L17.933 12.7923C18.4283 13.0505 19.0299 12.8484 19.2812 12.3444C19.5326 11.8404 19.3382 11.2138 18.8498 10.9559L15.5776 9.24049C15.0823 8.98231 14.4807 9.18442 14.2293 9.6884L9.97575 18.271C9.7241 18.782 9.91881 19.4016 10.4072 19.6595C10.9025 19.9177 11.5109 19.7158 11.7625 19.2048Z" fill="black" stroke="black" stroke-miterlimit="10"/>
<path d="M25.7959 15.5909C25.7959 11.8556 28.1853 9.28027 31.6222 9.28027C35.0592 9.28027 37.3553 11.6659 37.3553 15.372V16.2621L28.544 16.2839C28.7593 18.3778 29.8428 19.4356 31.7658 19.4356C33.3515 19.4356 34.3919 18.8082 34.7292 17.6774H37.4055C36.9104 20.2746 34.7794 21.8431 31.7227 21.8431C28.2427 21.8431 25.8031 19.2678 25.8031 15.5836L25.7959 15.5909ZM28.6158 14.409H34.4924C34.4924 12.7748 33.3802 11.6878 31.6509 11.6878C29.9217 11.6878 28.9028 12.6289 28.623 14.409H28.6158Z" fill="white"/>
<path d="M44.452 9.28027C46.2314 9.28027 47.767 10.0755 48.4773 11.447L48.6639 9.63775H51.3187V25.593H48.4558V19.9463C47.7239 21.15 46.1812 21.8504 44.452 21.8504C40.9719 21.8504 38.9844 19.1511 38.9844 15.445C38.9844 11.7389 41.1657 9.28027 44.452 9.28027ZM45.1121 19.2021C47.1283 19.2021 48.4271 17.7358 48.4271 15.5909C48.4271 13.446 47.1212 11.9577 45.1121 11.9577C43.103 11.9577 41.8688 13.4752 41.8688 15.5909C41.8688 17.7066 43.103 19.2021 45.1121 19.2021Z" fill="white"/>
<path d="M65.1523 9.64453V21.5362H62.476L62.2607 19.9458C61.5503 21.0766 60.0364 21.8499 58.4721 21.8499C55.7742 21.8499 54.1885 19.9968 54.1885 17.0859V9.64453H57.0801V16.05C57.0801 18.3116 57.9555 19.2308 59.5628 19.2308C61.3853 19.2308 62.2607 18.1511 62.2607 15.8822V9.64453H65.1523Z" fill="white"/>
<path d="M67.8008 5.47892C67.8008 4.49403 68.5829 3.7207 69.5803 3.7207C70.5776 3.7207 71.3095 4.49403 71.3095 5.47892C71.3095 6.46381 70.5274 7.25902 69.5803 7.25902C68.5829 7.25902 67.8008 6.46381 67.8008 5.47892ZM68.1308 9.64464H71.0225V21.5363H68.1308V9.64464Z" fill="white"/>
<path d="M81.3465 12.3148H80.2774C78.1966 12.3148 76.8907 13.4456 76.8907 15.7583V21.5363H73.999V9.66653H76.7256L76.8907 11.4029C77.3858 10.221 78.5051 9.42578 80.0622 9.42578C80.464 9.42578 80.8658 9.47685 81.3394 9.59358V12.3148H81.3465Z" fill="white"/>
<path d="M82.2227 15.5909C82.2227 11.8556 84.612 9.28027 88.049 9.28027C91.486 9.28027 93.7821 11.6659 93.7821 15.372V16.2621L84.9708 16.2839C85.1861 18.3778 86.2695 19.4356 88.1925 19.4356C89.7783 19.4356 90.8187 18.8082 91.1559 17.6774H93.8323C93.3372 20.2746 91.2061 21.8431 88.1495 21.8431C84.6694 21.8431 82.2298 19.2678 82.2298 15.5836L82.2227 15.5909ZM85.0426 14.409H90.9191C90.9191 12.7748 89.807 11.6878 88.0777 11.6878C86.3485 11.6878 85.3296 12.6289 85.0497 14.409H85.0426Z" fill="white"/>
<path d="M95.4105 15.6337C95.4105 11.9276 97.5416 9.2793 101.072 9.2793C102.708 9.2793 104.15 9.97966 104.882 11.1615V5.80664H107.745V21.5357H105.09L105.004 19.4711C104.294 20.8427 102.672 21.8421 100.9 21.8421C97.5129 21.8421 95.4033 19.3179 95.4033 15.6337H95.4105ZM104.86 15.5388C104.86 13.394 103.554 11.9057 101.545 11.9057C99.5363 11.9057 98.3021 13.4231 98.3021 15.5388C98.3021 17.6545 99.5363 19.1501 101.545 19.1501C103.554 19.1501 104.86 17.6837 104.86 15.5388Z" fill="white"/>
<path d="M51.3252 12.9269C51.3252 12.121 50.6827 11.4678 49.8901 11.4678C49.0976 11.4678 48.4551 12.121 48.4551 12.9269V26.2339C48.4551 27.0397 49.0976 27.693 49.8901 27.693C50.6827 27.693 51.3252 27.0397 51.3252 26.2339V12.9269Z" fill="white"/>
<path d="M106.347 3.61816H106.268C105.491 3.61816 104.861 4.25836 104.861 5.04808V12.3217C104.861 13.1114 105.491 13.7516 106.268 13.7516H106.347C107.123 13.7516 107.753 13.1114 107.753 12.3217V5.04808C107.753 4.25836 107.123 3.61816 106.347 3.61816Z" fill="white"/>
</svg>
