<svg width="1009" height="255" viewBox="0 0 1009 255" fill="none" xmlns="http://www.w3.org/2000/svg">
<path d="M176.814 235.537C236.48 208.29 262.779 137.809 235.532 78.1442C208.292 18.5597 137.811 -7.73994 78.1396 19.4262C18.555 46.6667 -7.74455 117.148 19.4216 176.819C46.5877 236.49 117.149 262.784 176.814 235.537ZM88.0554 41.0336C135.745 19.3205 192.212 40.3701 213.919 87.9794C235.626 135.589 214.582 192.136 166.973 213.843C119.283 235.556 62.8165 214.506 41.1095 166.897C19.3964 119.207 40.4461 62.7405 88.0554 41.0336ZM103.879 186.655L138.383 94.1547L167.991 105.182C174.162 107.466 180.974 104.353 183.264 98.2623C185.554 92.172 182.434 85.2795 176.344 82.9896L135.558 67.7919C129.388 65.5082 122.576 68.6216 120.286 74.7119L81.6121 178.389C79.3284 184.56 82.4417 191.372 88.532 193.662C94.7028 195.945 101.595 192.826 103.879 186.655Z" fill="black" stroke="black" stroke-width="0.5" stroke-miterlimit="10"/>
<path d="M262.247 141.987C262.247 107.969 284.007 84.5157 315.308 84.5157C346.609 84.5157 367.52 106.242 367.52 139.994V148.1L287.274 148.299C289.235 167.367 299.102 177.001 316.615 177.001C331.056 177.001 340.532 171.287 343.603 160.989H367.977C363.468 184.642 344.06 198.927 316.223 198.927C284.53 198.927 262.312 175.473 262.312 141.921L262.247 141.987ZM287.928 131.224H341.446C341.446 116.341 331.318 106.441 315.569 106.441C299.821 106.441 290.542 115.012 287.993 131.224H287.928Z" fill="black"/>
<path d="M432.149 84.5157C448.355 84.5157 462.339 91.7578 468.808 104.249L470.507 87.7713H494.686V233.077H468.612V181.652C461.947 192.615 447.898 198.993 432.149 198.993C400.456 198.993 382.355 174.41 382.355 140.658C382.355 106.906 402.221 84.5157 432.149 84.5157ZM438.161 174.875C456.523 174.875 468.351 161.521 468.351 141.987C468.351 122.453 456.458 108.899 438.161 108.899C419.864 108.899 408.625 122.719 408.625 141.987C408.625 161.255 419.864 174.875 438.161 174.875Z" fill="black"/>
<path d="M620.669 87.8347V196.133H596.295L594.335 181.649C587.865 191.947 574.077 198.99 559.832 198.99C535.262 198.99 520.82 182.114 520.82 155.604V87.8347H547.155V146.17C547.155 166.766 555.127 175.138 569.764 175.138C586.362 175.138 594.335 165.305 594.335 144.642V87.8347H620.669Z" fill="black"/>
<path d="M644.789 49.8964C644.789 40.9269 651.912 33.8842 660.995 33.8842C670.078 33.8842 676.743 40.9269 676.743 49.8964C676.743 58.8659 669.621 66.108 660.995 66.108C651.912 66.108 644.789 58.8659 644.789 49.8964ZM647.795 87.8341H674.13V196.132H647.795V87.8341Z" fill="black"/>
<path d="M768.153 112.151H758.416C739.466 112.151 727.573 122.449 727.573 143.511V196.132H701.238V88.0329H726.07L727.573 103.846C732.082 93.0824 742.276 85.8403 756.456 85.8403C760.115 85.8403 763.775 86.3054 768.088 87.3685V112.151H768.153Z" fill="black"/>
<path d="M776.13 141.987C776.13 107.969 797.891 84.5157 829.192 84.5157C860.492 84.5157 881.403 106.242 881.403 139.994V148.1L801.158 148.299C803.118 167.367 812.986 177.001 830.498 177.001C844.94 177.001 854.415 171.287 857.486 160.989H881.861C877.352 184.642 857.944 198.927 830.106 198.927C798.413 198.927 776.196 175.473 776.196 141.921L776.13 141.987ZM801.811 131.224H855.33C855.33 116.341 845.201 106.441 829.453 106.441C813.704 106.441 804.425 115.012 801.877 131.224H801.811Z" fill="black"/>
<path d="M896.233 142.377C896.233 108.625 915.641 84.5069 947.791 84.5069C962.69 84.5069 975.825 90.8852 982.49 101.649V52.8811H1008.56V196.127H984.385L983.601 177.325C977.132 189.815 962.364 198.918 946.223 198.918C915.38 198.918 896.168 175.929 896.168 142.377H896.233ZM982.294 141.513C982.294 121.979 970.401 108.426 952.104 108.426C933.807 108.426 922.568 122.245 922.568 141.513C922.568 160.781 933.807 174.401 952.104 174.401C970.401 174.401 982.294 161.047 982.294 141.513Z" fill="black"/>
<path d="M494.745 117.726C494.745 110.387 488.893 104.438 481.675 104.438C474.457 104.438 468.606 110.387 468.606 117.726V238.914C468.606 246.252 474.457 252.202 481.675 252.202C488.893 252.202 494.745 246.252 494.745 238.914V117.726Z" fill="black"/>
<path d="M995.83 32.9504H995.111C988.037 32.9504 982.303 38.7807 982.303 45.9728V112.214C982.303 119.406 988.037 125.237 995.111 125.237H995.83C1002.9 125.237 1008.64 119.406 1008.64 112.214V45.9728C1008.64 38.7807 1002.9 32.9504 995.83 32.9504Z" fill="black"/>
</svg>
